<svg height="32" viewBox="0 0 1560 1024" width="48.75" xmlns="http://www.w3.org/2000/svg"><path d="m141.409524 0h1275.123809c80.457143 0 143.847619 63.390476 143.847619 138.971429v746.057142c0 78.019048-63.390476 138.971429-141.409523 138.971429h-1277.561905c-78.019048 0-141.409524-63.390476-141.409524-138.971429v-746.057142c0-75.580953 63.390476-138.971429 141.409524-138.971429z" fill="#f42a41"/><g fill="#fff"><path d="m0 885.028571c0 75.580953 63.390476 138.971429 141.409524 138.971429h1277.561905c78.019048 0 141.409524-60.952381 141.409523-138.971429v-373.028571h-1560.380952zm224.304762-621.714285c0-104.838095 82.895238-192.609524 187.733333-195.047619-21.942857-7.314286-43.885714-12.190476-68.266666-12.190477-114.590476 0-207.238095 92.647619-207.238096 207.238096s92.647619 207.238095 207.238096 207.238095c24.380952 0 46.32381-4.87619 68.266666-12.190476-104.838095-4.87619-187.733333-90.209524-187.733333-195.047619z"/><path d="m341.333333 246.247619 26.819048 21.942857-9.752381-36.571428 29.257143-21.942858h-36.571429l-9.752381-34.133333-12.190476 34.133333h-34.133333l29.257143 21.942858-12.190477 36.571428zm268.190477-36.571429h-36.571429l-9.752381-34.133333-12.190476 34.133333h-34.133334l29.257143 21.942858-12.190476 36.571428 29.257143-21.942857 26.819048 21.942857-9.752381-36.571428zm-141.409524-60.95238 29.257143-19.504762h-34.133334l-12.190476-36.571429-9.752381 36.571429h-34.133333l26.819047 19.504762-9.752381 36.571428 26.819048-21.942857 29.257143 21.942857zm-75.580953 192.609523-9.752381-34.133333-12.190476 34.133333h-34.133333l29.257143 21.942857-12.190476 36.571429 29.257142-21.942857 26.819048 21.942857-9.752381-36.571429 29.257143-21.942857zm138.971429 0-9.752381-34.133333-12.190476 34.133333h-34.133334l29.257143 21.942857-12.190476 36.571429 29.257143-21.942857 26.819048 21.942857-9.752381-36.571429 26.819047-21.942857z"/></g></svg>