<svg height="32" viewBox="0 0 1560 1024" width="48.75" xmlns="http://www.w3.org/2000/svg"><path d="m0 234.057143h1560.380952v78.019047h-1560.380952zm0 650.971428c0 17.066667 2.438095 36.571429 9.752381 51.2h1540.87619c7.314286-17.066667 9.752381-34.133333 9.752381-51.2v-26.819047h-1560.380952zm0-338.895238h1560.380952v78.019048h-1560.380952zm0 156.038096h1560.380952v78.019047h-1560.380952zm0-312.076191h1560.380952v78.019048h-1560.380952zm0-251.123809v17.066666h1560.380952v-17.066666c0-21.942857-4.87619-41.447619-14.628571-60.952381h-1531.12381c-9.752381 19.504762-14.628571 39.009523-14.628571 60.952381z" fill="#fff"/><path d="m1418.971429 0h-1277.561905c-56.076191 0-104.838095 31.695238-126.780953 78.019048h1531.12381c-21.942857-46.32381-70.704762-78.019048-126.780952-78.019048zm-1418.971429 156.038095h1560.380952v78.019048h-1560.380952zm0 156.038095h1560.380952v78.019048h-1560.380952zm0 156.038096h1560.380952v78.019047h-1560.380952zm0 156.038095h1560.380952v78.019048h-1560.380952zm0 156.038095h1560.380952v78.019048h-1560.380952zm141.409524 243.809524h1277.561905c58.514286 0 109.714286-36.571429 131.657142-87.771429h-1540.87619c21.942857 51.2 70.704762 87.771429 131.657143 87.771429z" fill="#bd0a30"/><path d="m768 0h-626.590476c-41.447619 0-78.019048 17.066667-102.4 43.885714h17.066666l7.314286-19.504762 7.314286 19.504762h21.942857l-17.066667 14.628572 7.314286 21.942857-19.504762-14.628572-17.066666 14.628572 7.314285-21.942857-17.066666-12.190476c-21.942858 24.380952-36.571429 56.07619-36.571429 92.647619v407.161904h768z" fill="#3c3b6e"/><path d="m53.638095 58.514286-7.314285 21.942857 17.066666-14.628572 19.504762 14.628572-7.314286-21.942857 17.066667-14.628572h-21.942857l-7.314286-19.504762-7.314286 19.504762h-17.066666l-2.438095 2.438096zm21.942857 109.714285 17.066667-14.628571h-21.942857l-7.314286-21.942857-7.314286 21.942857h-21.942857l19.504762 14.628571-7.314285 21.942858 17.066666-14.628572 19.504762 14.628572zm0 109.714286 17.066667-14.628571h-21.942857l-7.314286-21.942857-7.314286 21.942857h-21.942857l19.504762 14.628571-7.314285 19.504762 17.066666-12.190476 19.504762 12.190476zm0 107.276191 17.066667-12.190477h-21.942857l-7.314286-21.942857-7.314286 21.942857h-21.942857l19.504762 12.190477-7.314285 21.942857 17.066666-12.190476 19.504762 12.190476zm0 109.714285 17.066667-12.190476h-21.942857l-7.314286-21.942857-7.314286 21.942857h-21.942857l19.504762 12.190476-7.314285 21.942857 17.066666-12.190476 19.504762 12.190476zm63.390477-382.780952 19.504761-12.190476h-24.380952l-7.314286-21.942857-4.87619 21.942857h-24.380952l19.504761 12.190476-7.314285 21.942857 17.066666-12.190476 19.504762 12.190476zm0 109.714286 19.504761-12.190477h-24.380952l-7.314286-21.942857-4.87619 21.942857h-24.380952l19.504761 12.190477-7.314285 21.942857 17.066666-14.628572 19.504762 14.628572zm0 109.714285 19.504761-14.628571h-24.380952l-7.314286-19.504762-4.87619 19.504762h-24.380952l19.504761 14.628571-7.314285 21.942858 17.066666-14.628572 19.504762 14.628572zm0 109.714286 19.504761-14.628571h-24.380952l-7.314286-21.942857-4.87619 21.942857h-24.380952l19.504761 14.628571-7.314285 21.942857 17.066666-14.628571 19.504762 14.628571zm34.133333-360.838095 19.504762-14.628572 17.066666 14.628572-7.314285-21.942857 19.504762-14.628572h-24.380953l-4.87619-19.504762-7.314286 19.504762h-21.942857l17.066667 14.628572zm19.504762 51.2-7.314286 21.942857h-21.942857l17.066667 14.628571-7.314286 21.942858 19.504762-14.628572 17.066666 14.628572-7.314285-21.942858 19.504762-14.628571h-24.380953zm0 109.714286-7.314286 21.942857h-21.942857l17.066667 14.628571-7.314286 19.504762 19.504762-12.190476 17.066666 12.190476-7.314285-19.504762 19.504762-14.628571h-24.380953zm4.87619 131.657142-4.87619-21.942857-7.314286 21.942857h-21.942857l17.066667 12.190477-7.314286 21.942857 19.504762-12.190476 17.066666 12.190476-7.314285-21.942857 19.504762-12.190477zm4.876191 121.904762 19.504762-12.190476h-24.380953l-4.87619-21.942857-7.314286 21.942857h-21.942857l17.066667 12.190476-7.314286 21.942857 19.504762-12.190476 17.066666 12.190476zm41.447619-382.780952-7.314286 21.942857 19.504762-12.190476 17.066667 12.190476-7.314286-21.942857 19.504762-12.190476h-21.942857l-7.314286-21.942857-7.314286 21.942857h-21.942857zm12.190476 75.580952-7.314286 21.942857h-21.942857l17.066667 12.190477-7.314286 21.942857 19.504762-14.628572 17.066667 14.628572-7.314286-21.942857 19.504762-12.190477h-21.942857zm0 109.714286-7.314286 19.504762h-21.942857l17.066667 14.628571-7.314286 21.942858 19.504762-14.628572 17.066667 14.628572-7.314286-21.942858 19.504762-14.628571h-21.942857zm7.314286 129.219048-7.314286-21.942857-7.314286 21.942857h-21.942857l17.066667 14.628571-7.314286 21.942857 19.504762-14.628571 17.066667 14.628571-7.314286-21.942857 19.504762-14.628571zm56.07619-402.285715-7.314286 19.504762h-21.942857l17.066667 14.628572-4.87619 21.942857 17.066666-14.628572 19.504762 14.628572-7.314286-21.942857 17.066667-14.628572h-21.942857zm0 107.276191-7.314286 21.942857h-21.942857l17.066667 14.628571-4.87619 21.942858 17.066666-14.628572 19.504762 14.628572-7.314286-21.942858 17.066667-14.628571h-21.942857zm0 109.714286-7.314286 21.942857h-21.942857l17.066667 14.628571-4.87619 19.504762 17.066666-12.190476 19.504762 12.190476-7.314286-19.504762 17.066667-14.628571h-21.942857zm0 109.714285-7.314286 21.942857h-21.942857l17.066667 12.190477-4.87619 21.942857 17.066666-12.190476 19.504762 12.190476-7.314286-21.942857 17.066667-12.190477h-21.942857zm7.314286 131.657143-7.314286-21.942857-7.314286 21.942857h-21.942857l17.066667 12.190476-4.87619 21.942857 17.066666-12.190476 19.504762 12.190476-7.314286-21.942857 17.066667-12.190476zm56.07619-404.723809-7.314285 21.942857h-21.942857l19.504761 12.190476-7.314285 21.942857 17.066666-12.190476 19.504762 12.190476-7.314285-21.942857 17.066666-12.190476h-21.942857zm0 109.714285-7.314285 21.942857h-21.942857l19.504761 12.190477-7.314285 21.942857 17.066666-14.628572 19.504762 14.628572-7.314285-21.942857 17.066666-12.190477h-21.942857zm0 109.714286-7.314285 19.504762h-21.942857l19.504761 14.628571-7.314285 21.942858 17.066666-14.628572 19.504762 14.628572-7.314285-21.942858 17.066666-14.628571h-21.942857zm7.314286 129.219048-7.314286-21.942857-7.314285 21.942857h-21.942857l19.504761 14.628571-7.314285 21.942857 17.066666-14.628571 19.504762 14.628571-7.314285-21.942857 17.066666-14.628571zm56.076191-402.285715-4.876191 19.504762h-24.380952l19.504762 14.628572-7.314286 21.942857 17.066667-14.628572 19.504761 14.628572-7.314285-21.942857 19.504762-14.628572h-24.380953zm0 107.276191-4.876191 21.942857h-24.380952l19.504762 14.628571-7.314286 21.942858 17.066667-14.628572 19.504761 14.628572-7.314285-21.942858 19.504762-14.628571h-24.380953zm0 109.714286-4.876191 21.942857h-24.380952l19.504762 14.628571-7.314286 19.504762 17.066667-12.190476 19.504761 12.190476-7.314285-19.504762 19.504762-14.628571h-24.380953zm0 109.714285-4.876191 21.942857h-24.380952l19.504762 12.190477-7.314286 21.942857 17.066667-12.190476 19.504761 12.190476-7.314285-21.942857 19.504762-12.190477h-24.380953zm7.314285 131.657143-7.314285-21.942857-4.876191 21.942857h-24.380952l19.504762 12.190476-7.314286 21.942857 17.066667-12.190476 19.504761 12.190476-7.314285-21.942857 19.504762-12.190476zm58.514286-404.723809-7.314286 21.942857h-21.942857l17.066667 12.190476-7.314286 21.942857 19.504762-12.190476 17.066667 12.190476-7.314286-21.942857 19.504762-12.190476h-21.942857zm63.390476 53.638095-7.314286 21.942857h-21.942857l17.066667 14.628571-7.314286 21.942858 19.504762-14.628572 17.066667 14.628572-4.876191-21.942858 17.066667-14.628571h-21.942857zm-63.390476 56.07619-7.314286 21.942857h-21.942857l17.066667 12.190477-7.314286 21.942857 19.504762-14.628572 17.066667 14.628572-7.314286-21.942857 19.504762-12.190477h-21.942857zm0 109.714286-7.314286 19.504762h-21.942857l17.066667 14.628571-7.314286 21.942858 19.504762-14.628572 17.066667 14.628572-7.314286-21.942858 19.504762-14.628571h-21.942857zm7.314286 129.219048-7.314286-21.942857-7.314286 21.942857h-21.942857l17.066667 14.628571-7.314286 21.942857 19.504762-14.628571 17.066667 14.628571-7.314286-21.942857 19.504762-14.628571zm56.07619-402.285715-7.314286 19.504762h-21.942857l17.066667 14.628572-7.314286 21.942857 19.504762-14.628572 17.066667 14.628572-4.876191-21.942857 17.066667-14.628572h-21.942857zm0 216.990477-7.314286 21.942857h-21.942857l17.066667 14.628571-7.314286 19.504762 19.504762-12.190476 17.066667 12.190476-4.876191-19.504762 17.066667-14.628571h-21.942857zm0 109.714285-7.314286 21.942857h-21.942857l17.066667 12.190477-7.314286 21.942857 19.504762-12.190476 17.066667 12.190476-4.876191-21.942857 17.066667-12.190477h-21.942857zm7.314286 131.657143-7.314286-21.942857-7.314286 21.942857h-21.942857l17.066667 12.190476-7.314286 21.942857 19.504762-12.190476 17.066667 12.190476-4.876191-21.942857 17.066667-12.190476zm56.07619-404.723809-7.314285 21.942857h-21.942857l17.066666 12.190476-4.87619 21.942857 17.066666-12.190476 19.504762 12.190476-7.314285-21.942857 17.066666-12.190476h-21.942857zm0 109.714285-7.314285 21.942857h-21.942857l17.066666 12.190477-4.87619 21.942857 17.066666-14.628572 19.504762 14.628572-7.314285-21.942857 17.066666-12.190477h-21.942857zm0 109.714286-7.314285 19.504762h-21.942857l17.066666 14.628571-4.87619 21.942858 17.066666-14.628572 19.504762 14.628572-7.314285-21.942858 17.066666-14.628571h-21.942857zm7.314286 129.219048-7.314286-21.942857-7.314285 21.942857h-21.942857l17.066666 14.628571-4.87619 21.942857 17.066666-14.628571 19.504762 14.628571-7.314285-21.942857 17.066666-14.628571zm46.32381-368.152381-7.314286 21.942857 17.066667-14.628572 19.504761 14.628572-7.314285-21.942857 17.066666-14.628572h-21.942857l-7.314285-19.504762-7.314286 19.504762h-21.942857zm9.752381 73.142857-7.314286 21.942857h-21.942857l19.504762 14.628571-7.314286 21.942858 17.066667-14.628572 19.504761 14.628572-7.314285-21.942858 17.066666-14.628571h-21.942857zm0 109.714286-7.314286 21.942857h-21.942857l19.504762 14.628571-7.314286 19.504762 17.066667-12.190476 19.504761 12.190476-7.314285-19.504762 17.066666-14.628571h-21.942857zm0 109.714285-7.314286 21.942857h-21.942857l19.504762 12.190477-7.314286 21.942857 17.066667-12.190476 19.504761 12.190476-7.314285-21.942857 17.066666-12.190477h-21.942857zm7.314285 131.657143-7.314285-21.942857-7.314286 21.942857h-21.942857l19.504762 12.190476-7.314286 21.942857 17.066667-12.190476 19.504761 12.190476-7.314285-21.942857 17.066666-12.190476z" fill="#fff"/></svg>